<svg xmlns="http://www.w3.org/2000/svg" viewBox="0 0 29.495 31.461">
  <defs>
    <style>
      .cls-1 {
        opacity: 0.3;
      }

      .cls-2 {
        fill: none;
      }
    </style>
  </defs>
  <g id="arrow-left" transform="translate(65.383 324.017) rotate(180)">
    <g id="v1-3-1-home-dashboard-footer" transform="translate(-1283 -608)">
      <g id="favorites" class="cls-1" transform="translate(1318.889 900.556)">
        <g id="Icons-_-Arrow-Right-_-M-Copy" data-name="Icons-/-Arrow-Right-/-M-Copy" transform="translate(29.495 31.461) rotate(180)">
          <g id="Direct-_-Icons-_-Arrow-Right-_-M" data-name="Direct-/-Icons-/-Arrow-Right-/-M">
            <rect id="box" class="cls-2" width="29.495" height="31.461"/>
            <path id="icon_arrow-right_m" d="M12.9,15.194a2.326,2.326,0,0,1-1.839-.958L.472,2.937A1.8,1.8,0,0,1,.472.5,1.543,1.543,0,0,1,2.754.5L12.9,11.331,23.054.5a1.543,1.543,0,0,1,2.281,0,1.8,1.8,0,0,1,0,2.433L14.781,14.2A2.422,2.422,0,0,1,12.9,15.194Z" transform="translate(7.151 28.903) rotate(-90)"/>
          </g>
        </g>
      </g>
    </g>
  </g>
</svg>
