<?xml version="1.0" encoding="UTF-8" standalone="no"?>
<svg xmlns="http://www.w3.org/2000/svg" height="14px" width="16px" version="1.1" xmlns:xlink="http://www.w3.org/1999/xlink" viewBox="0 0 16 14"><!-- Generator: Sketch 51 (57462) - http://www.bohemiancoding.com/sketch -->
 <title>icon_list_m</title>
 <desc>Created with Sketch.</desc>
 <defs>
  <path id="path-1" d="m0 3.3263c0-0.5484 0.44463-0.993 1.0009-0.993h13.998c0.553 0 1.001 0.4404 1.001 0.993v0.6807c0 0.5484-0.445 0.993-1.001 0.993h-13.998c-0.55289 0-1.001-0.4403-1.001-0.993v-0.6807zm0 5.3333c0-0.5484 0.44463-0.9929 1.0009-0.9929h13.998c0.553 0 1.001 0.4403 1.001 0.9929v0.6808c0 0.5484-0.445 0.9926-1.001 0.9926h-13.998c-0.55289 0-1.001-0.44-1.001-0.9926v-0.6808zm0 5.3334c0-0.548 0.44463-0.993 1.0009-0.993h13.998c0.553 0 1.001 0.44 1.001 0.993v0.681c0 0.548-0.445 0.993-1.001 0.993h-13.998c-0.55289 0-1.001-0.441-1.001-0.993v-0.681z"/>
 </defs>
 <g id="Final" fill-rule="evenodd" fill="none">
  <g id="v1-1-1-mobile-home" transform="translate(-339 -70)">
   <g id="Direct-/-Icons-/-List-/-M" transform="translate(339 68)">
    <mask id="mask-2" fill="white">
     <use xlink:href="#path-1"/>
    </mask>
    <use id="icon_list_m" xlink:href="#path-1" fill="#333333"/>
   </g>
  </g>
 </g>
</svg>
